<?xml version="1.0" encoding="UTF-8" standalone="no"?><!DOCTYPE svg PUBLIC "-//W3C//DTD SVG 1.1//EN" "http://www.w3.org/Graphics/SVG/1.1/DTD/svg11.dtd"><!-- Generated by graphviz version 2.40.1 (20161225.0304)
 --><!-- Title: Lute Pages: 1 --><svg xmlns="http://www.w3.org/2000/svg" xmlns:xlink="http://www.w3.org/1999/xlink" width="1081pt" height="390pt" viewBox="0.00 0.00 1081.04 389.60">
<g id="graph0" class="graph" transform="scale(1 1) rotate(0) translate(4 385.6)">
<title>Lute</title>
<polygon fill="#ffffff" stroke="transparent" points="-4,4 -4,-385.6 1077.037,-385.6 1077.037,4 -4,4"/>
<g id="clust1" class="cluster">
<title>clusterLegend</title>
<polygon fill="none" stroke="#000000" points="8,-8 8,-373.6 554,-373.6 554,-8 8,-8"/>
<text text-anchor="middle" x="281" y="-357" font-family="Times,serif" font-size="14.00" fill="#000000">Legend</text>
</g>
<!-- legendNode0 -->
<g id="node1" class="node">
<title>legendNode0</title>
<polygon fill="none" stroke="#000000" points="286.3754,-304.8493 289.2723,-304.9479 292.1392,-305.0953 294.9645,-305.2913 297.7366,-305.5353 300.4445,-305.8266 303.0775,-306.1645 305.6254,-306.5479 308.0784,-306.9759 310.4275,-307.4472 312.6642,-307.9606 314.7806,-308.5147 316.7698,-309.108 318.6255,-309.7388 320.3422,-310.4054 321.915,-311.1059 323.3403,-311.8385 324.6148,-312.6012 325.7364,-313.3918 326.7036,-314.2082 327.5158,-315.0481 328.1732,-315.9093 328.6766,-316.7894 329.0277,-317.686 329.2289,-318.5965 329.283,-319.5186 329.1936,-320.4497 328.9649,-321.3873 328.6014,-322.3287 328.1081,-323.2713 327.4905,-324.2127 326.7542,-325.1503 325.9053,-326.0814 324.95,-327.0035 323.8945,-327.914 322.7452,-328.8106 321.5086,-329.6907 320.1911,-330.5519 318.799,-331.3918 317.3386,-332.2082 315.8157,-332.9988 314.2363,-333.7615 312.606,-334.4941 310.93,-335.1946 309.2134,-335.8612 307.4608,-336.492 305.6767,-337.0853 303.8651,-337.6394 302.0297,-338.1528 300.1739,-338.6241 298.3007,-339.0521 296.413,-339.4355 294.5131,-339.7734 292.6033,-340.0647 290.6856,-340.3087 288.7616,-340.5047 286.8329,-340.6521 284.901,-340.7507 282.9672,-340.8 281.0328,-340.8 279.099,-340.7507 277.1671,-340.6521 275.2384,-340.5047 273.3144,-340.3087 271.3967,-340.0647 269.4869,-339.7734 267.587,-339.4355 265.6993,-339.0521 263.8261,-338.6241 261.9703,-338.1528 260.1349,-337.6394 258.3233,-337.0853 256.5392,-336.492 254.7866,-335.8612 253.07,-335.1946 251.394,-334.4941 249.7637,-333.7615 248.1843,-332.9988 246.6614,-332.2082 245.201,-331.3918 243.8089,-330.5519 242.4914,-329.6907 241.2548,-328.8106 240.1055,-327.914 239.05,-327.0035 238.0947,-326.0814 237.2458,-325.1503 236.5095,-324.2127 235.8919,-323.2713 235.3986,-322.3287 235.0351,-321.3873 234.8064,-320.4497 234.717,-319.5186 234.7711,-318.5965 234.9723,-317.686 235.3234,-316.7894 235.8268,-315.9093 236.4842,-315.0481 237.2964,-314.2082 238.2636,-313.3918 239.3852,-312.6012 240.6597,-311.8385 242.085,-311.1059 243.6578,-310.4054 245.3745,-309.7388 247.2302,-309.108 249.2194,-308.5147 251.3358,-307.9606 253.5725,-307.4472 255.9216,-306.9759 258.3746,-306.5479 260.9225,-306.1645 263.5555,-305.8266 266.2634,-305.5353 269.0355,-305.2913 271.8608,-305.0953 274.7277,-304.9479 277.6246,-304.8493 280.5395,-304.8 283.4605,-304.8 286.3754,-304.8493"/>
<text text-anchor="middle" x="282" y="-319.2" font-family="Times,serif" font-size="12.00" fill="#000000">Executable</text>
</g>
<!-- legendNode1 -->
<g id="node2" class="node">
<title>legendNode1</title>
<polygon fill="none" stroke="#000000" points="397.8069,-161.3442 397.8069,-176.2558 364.5302,-186.8 317.4698,-186.8 284.1931,-176.2558 284.1931,-161.3442 317.4698,-150.8 364.5302,-150.8 397.8069,-161.3442"/>
<text text-anchor="middle" x="341" y="-165.2" font-family="Times,serif" font-size="12.00" fill="#000000">Static Library</text>
</g>
<!-- legendNode0&#45;&gt;legendNode1 -->
<g id="edge1" class="edge">
<title>legendNode0-&gt;legendNode1</title>
<path fill="none" stroke="#000000" d="M288.8835,-304.8328C299.0871,-278.1997 318.3125,-228.0183 330.3443,-196.6131"/>
<polygon fill="#000000" stroke="#000000" points="333.6681,-197.7204 333.9774,-187.1301 327.1314,-195.216 333.6681,-197.7204"/>
</g>
<!-- legendNode2 -->
<g id="node3" class="node">
<title>legendNode2</title>
<polygon fill="none" stroke="#000000" points="542.0867,-161.3442 542.0867,-176.2558 506.3029,-186.8 455.6971,-186.8 419.9133,-176.2558 419.9133,-161.3442 455.6971,-150.8 506.3029,-150.8 542.0867,-161.3442"/>
<polygon fill="none" stroke="#000000" points="546.0894,-158.3534 546.0894,-179.2466 506.8808,-190.8 455.1192,-190.8 415.9106,-179.2466 415.9106,-158.3534 455.1192,-146.8 506.8808,-146.8 546.0894,-158.3534"/>
<text text-anchor="middle" x="481" y="-165.2" font-family="Times,serif" font-size="12.00" fill="#000000">Shared Library</text>
</g>
<!-- legendNode0&#45;&gt;legendNode2 -->
<g id="edge2" class="edge">
<title>legendNode0-&gt;legendNode2</title>
<path fill="none" stroke="#000000" d="M303.6753,-306.0261C337.6026,-279.7708 403.6248,-228.6783 444.8367,-196.7857"/>
<polygon fill="#000000" stroke="#000000" points="447.2161,-199.37 452.9825,-190.4819 442.932,-193.8341 447.2161,-199.37"/>
</g>
<!-- legendNode3 -->
<g id="node4" class="node">
<title>legendNode3</title>
<polygon fill="none" stroke="#000000" points="151.6536,-161.3442 151.6536,-176.2558 114.3662,-186.8 61.6338,-186.8 24.3464,-176.2558 24.3464,-161.3442 61.6338,-150.8 114.3662,-150.8 151.6536,-161.3442"/>
<polygon fill="none" stroke="#000000" points="155.6434,-158.3163 155.6434,-179.2837 114.9181,-190.8 61.0819,-190.8 20.3566,-179.2837 20.3566,-158.3163 61.0819,-146.8 114.9181,-146.8 155.6434,-158.3163"/>
<polygon fill="none" stroke="#000000" points="159.6332,-155.2885 159.6332,-182.3115 115.47,-194.8 60.53,-194.8 16.3668,-182.3115 16.3668,-155.2885 60.53,-142.8 115.47,-142.8 159.6332,-155.2885"/>
<text text-anchor="middle" x="88" y="-165.2" font-family="Times,serif" font-size="12.00" fill="#000000">Module Library</text>
</g>
<!-- legendNode0&#45;&gt;legendNode3 -->
<!-- legendNode7 -->
<g id="node8" class="node">
<title>legendNode7</title>
<polygon fill="none" stroke="#000000" points="265.6539,-186.8 178.3461,-186.8 178.3461,-150.8 265.6539,-150.8 265.6539,-186.8"/>
<text text-anchor="middle" x="222" y="-165.2" font-family="Times,serif" font-size="12.00" fill="#000000">Custom Target</text>
</g>
<!-- legendNode0&#45;&gt;legendNode7 -->
<!-- legendNode4 -->
<g id="node5" class="node">
<title>legendNode4</title>
<polygon fill="none" stroke="#000000" points="399.119,-39.5623 322,-52 244.881,-39.5623 274.3378,-19.4377 369.6622,-19.4377 399.119,-39.5623"/>
<text text-anchor="middle" x="322" y="-30.4" font-family="Times,serif" font-size="12.00" fill="#000000">Interface Library</text>
</g>
<!-- legendNode1&#45;&gt;legendNode4 -->
<g id="edge4" class="edge">
<title>legendNode1-&gt;legendNode4</title>
<path fill="none" stroke="#000000" stroke-dasharray="5,2" d="M338.4376,-150.6203C335.2326,-127.8819 329.7113,-88.7099 325.9606,-62.0995"/>
<polygon fill="#000000" stroke="#000000" points="329.3834,-61.3053 324.5218,-51.8917 322.4519,-62.2823 329.3834,-61.3053"/>
<text text-anchor="middle" x="356.8654" y="-93.2" font-family="Times,serif" font-size="14.00" fill="#000000">Interface</text>
</g>
<!-- legendNode5 -->
<g id="node6" class="node">
<title>legendNode5</title>
<polygon fill="none" stroke="#000000" points="545.2793,-34 513.1396,-52 448.8604,-52 416.7207,-34 448.8604,-16 513.1396,-16 545.2793,-34"/>
<text text-anchor="middle" x="481" y="-30.4" font-family="Times,serif" font-size="12.00" fill="#000000">Object Library</text>
</g>
<!-- legendNode2&#45;&gt;legendNode5 -->
<g id="edge5" class="edge">
<title>legendNode2-&gt;legendNode5</title>
<path fill="none" stroke="#000000" stroke-dasharray="1,5" d="M481,-146.5405C481,-123.5085 481,-87.461 481,-62.392"/>
<polygon fill="#000000" stroke="#000000" points="484.5001,-62.3903 481,-52.3903 477.5001,-62.3904 484.5001,-62.3903"/>
<text text-anchor="middle" x="500.8268" y="-93.2" font-family="Times,serif" font-size="14.00" fill="#000000">Private</text>
</g>
<!-- legendNode6 -->
<g id="node7" class="node">
<title>legendNode6</title>
<polygon fill="none" stroke="#000000" points="161.5523,-29.9946 147.1825,-45.2228 89,-52 30.8175,-45.2228 16.4477,-29.9946 56.7112,-17.7826 121.2888,-17.7826 161.5523,-29.9946"/>
<text text-anchor="middle" x="89" y="-30.4" font-family="Times,serif" font-size="12.00" fill="#000000">Unknown Library</text>
</g>
<!-- legendNode3&#45;&gt;legendNode6 -->
<g id="edge6" class="edge">
<title>legendNode3-&gt;legendNode6</title>
<path fill="none" stroke="#000000" d="M88.1952,-142.4892C88.3667,-119.3668 88.6156,-85.8114 88.7911,-62.1548"/>
<polygon fill="#000000" stroke="#000000" points="92.2917,-62.0809 88.8661,-52.0551 85.2919,-62.0289 92.2917,-62.0809"/>
</g>
<!-- node0 -->
<g id="node9" class="node">
<title>node0</title>
<polygon fill="none" stroke="#000000" points="636.5638,-304.8493 639.5855,-304.9479 642.5758,-305.0953 645.5228,-305.2913 648.4143,-305.5353 651.2388,-305.8266 653.9852,-306.1645 656.6428,-306.5479 659.2015,-306.9759 661.6517,-307.4472 663.9847,-307.9606 666.1923,-308.5147 668.2672,-309.108 670.2028,-309.7388 671.9934,-310.4054 673.634,-311.1059 675.1206,-311.8385 676.45,-312.6012 677.6199,-313.3918 678.6287,-314.2082 679.4759,-315.0481 680.1616,-315.9093 680.6867,-316.7894 681.053,-317.686 681.2628,-318.5965 681.3192,-319.5186 681.226,-320.4497 680.9874,-321.3873 680.6083,-322.3287 680.0938,-323.2713 679.4495,-324.2127 678.6816,-325.1503 677.7961,-326.0814 676.7996,-327.0035 675.6986,-327.914 674.4999,-328.8106 673.21,-329.6907 671.8358,-330.5519 670.3838,-331.3918 668.8604,-332.2082 667.272,-332.9988 665.6246,-333.7615 663.924,-334.4941 662.1759,-335.1946 660.3853,-335.8612 658.5573,-336.492 656.6963,-337.0853 654.8067,-337.6394 652.8923,-338.1528 650.9565,-338.6241 649.0027,-339.0521 647.0337,-339.4355 645.052,-339.7734 643.06,-340.0647 641.0596,-340.3087 639.0527,-340.5047 637.041,-340.6521 635.0259,-340.7507 633.0089,-340.8 630.9911,-340.8 628.9741,-340.7507 626.959,-340.6521 624.9473,-340.5047 622.9404,-340.3087 620.94,-340.0647 618.948,-339.7734 616.9663,-339.4355 614.9973,-339.0521 613.0435,-338.6241 611.1077,-338.1528 609.1933,-337.6394 607.3037,-337.0853 605.4427,-336.492 603.6147,-335.8612 601.8241,-335.1946 600.076,-334.4941 598.3754,-333.7615 596.728,-332.9988 595.1396,-332.2082 593.6162,-331.3918 592.1642,-330.5519 590.79,-329.6907 589.5001,-328.8106 588.3014,-327.914 587.2004,-327.0035 586.2039,-326.0814 585.3184,-325.1503 584.5505,-324.2127 583.9062,-323.2713 583.3917,-322.3287 583.0126,-321.3873 582.774,-320.4497 582.6808,-319.5186 582.7372,-318.5965 582.947,-317.686 583.3133,-316.7894 583.8384,-315.9093 584.5241,-315.0481 585.3713,-314.2082 586.3801,-313.3918 587.55,-312.6012 588.8794,-311.8385 590.366,-311.1059 592.0066,-310.4054 593.7972,-309.7388 595.7328,-309.108 597.8077,-308.5147 600.0153,-307.9606 602.3483,-307.4472 604.7985,-306.9759 607.3572,-306.5479 610.0148,-306.1645 612.7612,-305.8266 615.5857,-305.5353 618.4772,-305.2913 621.4242,-305.0953 624.4145,-304.9479 627.4362,-304.8493 630.4766,-304.8 633.5234,-304.8 636.5638,-304.8493"/>
<text text-anchor="middle" x="632" y="-319.2" font-family="Times,serif" font-size="12.00" fill="#000000">CDNServer</text>
</g>
<!-- node1 -->
<g id="node10" class="node">
<title>node1</title>
<polygon fill="none" stroke="#000000" points="780.5708,-161.3442 780.5708,-176.2558 753.2903,-186.8 714.7097,-186.8 687.4292,-176.2558 687.4292,-161.3442 714.7097,-150.8 753.2903,-150.8 780.5708,-161.3442"/>
<polygon fill="none" stroke="#000000" points="784.5737,-158.6025 784.5737,-178.9975 754.0374,-190.8 713.9626,-190.8 683.4263,-178.9975 683.4263,-158.6025 713.9626,-146.8 754.0374,-146.8 784.5737,-158.6025"/>
<text text-anchor="middle" x="734" y="-165.2" font-family="Times,serif" font-size="12.00" fill="#000000">Lute_Base</text>
</g>
<!-- node0&#45;&gt;node1 -->
<g id="edge8" class="edge">
<title>node0-&gt;node1</title>
<path fill="none" stroke="#000000" stroke-dasharray="1,5" d="M614.2204,-305.5572C596.9283,-286.629 575.3813,-255.7483 591,-231.8 609.2412,-203.8308 642.9992,-188.1931 673.1361,-179.4946"/>
<polygon fill="#000000" stroke="#000000" points="674.4353,-182.7701 683.1899,-176.8029 672.6249,-176.0082 674.4353,-182.7701"/>
</g>
<!-- node2 -->
<g id="node11" class="node">
<title>node2</title>
<polygon fill="none" stroke="#000000" points="706.408,-242.3442 706.408,-257.2558 675.1223,-267.8 630.8777,-267.8 599.592,-257.2558 599.592,-242.3442 630.8777,-231.8 675.1223,-231.8 706.408,-242.3442"/>
<text text-anchor="middle" x="653" y="-246.2" font-family="Times,serif" font-size="12.00" fill="#000000">Lute_Polaris</text>
</g>
<!-- node0&#45;&gt;node2 -->
<g id="edge10" class="edge">
<title>node0-&gt;node2</title>
<path fill="none" stroke="#000000" stroke-dasharray="1,5" d="M637.191,-304.7551C639.5384,-296.5951 642.3662,-286.7652 644.9772,-277.6887"/>
<polygon fill="#000000" stroke="#000000" points="648.3948,-278.4683 647.7959,-267.8904 641.6677,-276.533 648.3948,-278.4683"/>
</g>
<!-- node2&#45;&gt;node1 -->
<g id="edge9" class="edge">
<title>node2-&gt;node1</title>
<path fill="none" stroke="#000000" d="M671.3802,-231.4198C681.412,-221.388 694.0557,-208.7443 705.3509,-197.4491"/>
<polygon fill="#000000" stroke="#000000" points="707.9414,-199.8083 712.5377,-190.2623 702.9917,-194.8586 707.9414,-199.8083"/>
</g>
<!-- node3 -->
<g id="node12" class="node">
<title>node3</title>
<polygon fill="none" stroke="#000000" points="877.7073,-242.3442 877.7073,-257.2558 843.9031,-267.8 796.0969,-267.8 762.2927,-257.2558 762.2927,-242.3442 796.0969,-231.8 843.9031,-231.8 877.7073,-242.3442"/>
<text text-anchor="middle" x="820" y="-246.2" font-family="Times,serif" font-size="12.00" fill="#000000">Lute_MySQL</text>
</g>
<!-- node3&#45;&gt;node1 -->
<g id="edge11" class="edge">
<title>node3-&gt;node1</title>
<path fill="none" stroke="#000000" stroke-dasharray="1,5" d="M800.4853,-231.4198C789.6507,-221.2152 775.9466,-208.3078 763.799,-196.8665"/>
<polygon fill="#000000" stroke="#000000" points="766.1554,-194.2779 756.4761,-189.9694 761.356,-199.3735 766.1554,-194.2779"/>
</g>
<!-- node4 -->
<g id="node13" class="node">
<title>node4</title>
<polygon fill="none" stroke="#000000" points="1073.0741,-164.7946 1062.9583,-180.0228 1022,-186.8 981.0417,-180.0228 970.9259,-164.7946 999.2699,-152.5826 1044.7301,-152.5826 1073.0741,-164.7946"/>
<text text-anchor="middle" x="1022" y="-165.2" font-family="Times,serif" font-size="12.00" fill="#000000">mysqlclient</text>
</g>
<!-- node3&#45;&gt;node4 -->
<g id="edge12" class="edge">
<title>node3-&gt;node4</title>
<path fill="none" stroke="#000000" stroke-dasharray="1,5" d="M856.9372,-235.7513C885.4536,-224.8186 925.8457,-209.1442 961,-194.8 967.8883,-191.9893 975.1862,-188.9408 982.2479,-185.9536"/>
<polygon fill="#000000" stroke="#000000" points="983.8378,-189.0809 991.6703,-181.9464 981.0982,-182.6393 983.8378,-189.0809"/>
</g>
<!-- node5 -->
<g id="node14" class="node">
<title>node5</title>
<polygon fill="none" stroke="#000000" points="994.1161,-242.3442 994.1161,-257.2558 965.3446,-267.8 924.6554,-267.8 895.8839,-257.2558 895.8839,-242.3442 924.6554,-231.8 965.3446,-231.8 994.1161,-242.3442"/>
<text text-anchor="middle" x="945" y="-246.2" font-family="Times,serif" font-size="12.00" fill="#000000">Lute_Redis</text>
</g>
<!-- node5&#45;&gt;node1 -->
<g id="edge13" class="edge">
<title>node5-&gt;node1</title>
<path fill="none" stroke="#000000" d="M910.6296,-236.6057C875.75,-223.2159 821.4546,-202.3726 782.2672,-187.3291"/>
<polygon fill="#000000" stroke="#000000" points="783.2409,-183.9539 772.6508,-183.6375 780.7321,-190.4889 783.2409,-183.9539"/>
</g>
<!-- node6 -->
<g id="node15" class="node">
<title>node6</title>
<polygon fill="none" stroke="#000000" points="952.4876,-164.7946 945.6569,-180.0228 918,-186.8 890.3431,-180.0228 883.5124,-164.7946 902.6516,-152.5826 933.3484,-152.5826 952.4876,-164.7946"/>
<text text-anchor="middle" x="918" y="-165.2" font-family="Times,serif" font-size="12.00" fill="#000000">hiredis</text>
</g>
<!-- node5&#45;&gt;node6 -->
<g id="edge14" class="edge">
<title>node5-&gt;node6</title>
<path fill="none" stroke="#000000" d="M938.8733,-231.4198C935.3113,-220.7338 930.7614,-207.0841 926.8192,-195.2577"/>
<polygon fill="#000000" stroke="#000000" points="930.0342,-193.8344 923.5515,-185.4544 923.3934,-196.048 930.0342,-193.8344"/>
</g>
<!-- node7 -->
<g id="node16" class="node">
<title>node7</title>
<polygon fill="none" stroke="#000000" points="824.142,-304.8493 826.8844,-304.9479 829.5984,-305.0953 832.273,-305.2913 834.8973,-305.5353 837.4608,-305.8266 839.9533,-306.1645 842.3653,-306.5479 844.6875,-306.9759 846.9113,-307.4472 849.0286,-307.9606 851.0322,-308.5147 852.9153,-309.108 854.672,-309.7388 856.2971,-310.4054 857.7861,-311.1059 859.1353,-311.8385 860.3419,-312.6012 861.4036,-313.3918 862.3192,-314.2082 863.0881,-315.0481 863.7104,-315.9093 864.187,-316.7894 864.5194,-317.686 864.7098,-318.5965 864.7611,-319.5186 864.6765,-320.4497 864.46,-321.3873 864.1158,-322.3287 863.6489,-323.2713 863.0642,-324.2127 862.3672,-325.1503 861.5636,-326.0814 860.6592,-327.0035 859.6599,-327.914 858.572,-328.8106 857.4014,-329.6907 856.1541,-330.5519 854.8363,-331.3918 853.4537,-332.2082 852.0121,-332.9988 850.517,-333.7615 848.9736,-334.4941 847.387,-335.1946 845.7619,-335.8612 844.1028,-336.492 842.4139,-337.0853 840.6989,-337.6394 838.9614,-338.1528 837.2046,-338.6241 835.4313,-339.0521 833.6443,-339.4355 831.8457,-339.7734 830.0378,-340.0647 828.2223,-340.3087 826.4009,-340.5047 824.5751,-340.6521 822.7463,-340.7507 820.9156,-340.8 819.0844,-340.8 817.2537,-340.7507 815.4249,-340.6521 813.5991,-340.5047 811.7777,-340.3087 809.9622,-340.0647 808.1543,-339.7734 806.3557,-339.4355 804.5687,-339.0521 802.7954,-338.6241 801.0386,-338.1528 799.3011,-337.6394 797.5861,-337.0853 795.8972,-336.492 794.2381,-335.8612 792.613,-335.1946 791.0264,-334.4941 789.483,-333.7615 787.9879,-332.9988 786.5463,-332.2082 785.1637,-331.3918 783.8459,-330.5519 782.5986,-329.6907 781.428,-328.8106 780.3401,-327.914 779.3408,-327.0035 778.4364,-326.0814 777.6328,-325.1503 776.9358,-324.2127 776.3511,-323.2713 775.8842,-322.3287 775.54,-321.3873 775.3235,-320.4497 775.2389,-319.5186 775.2902,-318.5965 775.4806,-317.686 775.813,-316.7894 776.2896,-315.9093 776.9119,-315.0481 777.6808,-314.2082 778.5964,-313.3918 779.6581,-312.6012 780.8647,-311.8385 782.2139,-311.1059 783.7029,-310.4054 785.328,-309.7388 787.0847,-309.108 788.9678,-308.5147 790.9714,-307.9606 793.0887,-307.4472 795.3125,-306.9759 797.6347,-306.5479 800.0467,-306.1645 802.5392,-305.8266 805.1027,-305.5353 807.727,-305.2913 810.4016,-305.0953 813.1156,-304.9479 815.858,-304.8493 818.6174,-304.8 821.3826,-304.8 824.142,-304.8493"/>
<text text-anchor="middle" x="820" y="-319.2" font-family="Times,serif" font-size="12.00" fill="#000000">httpServer</text>
</g>
<!-- node7&#45;&gt;node1 -->
<g id="edge15" class="edge">
<title>node7-&gt;node1</title>
<path fill="none" stroke="#000000" stroke-dasharray="1,5" d="M793.2132,-307.2637C779.0746,-297.6759 762.6925,-284.0976 753,-267.8 741.0399,-247.6895 736.3899,-221.5828 734.6767,-201.2279"/>
<polygon fill="#000000" stroke="#000000" points="738.1644,-200.923 734.0254,-191.1701 731.1791,-201.3755 738.1644,-200.923"/>
</g>
<!-- node7&#45;&gt;node2 -->
<g id="edge17" class="edge">
<title>node7-&gt;node2</title>
<path fill="none" stroke="#000000" stroke-dasharray="1,5" d="M782.3977,-310.8456C763.4053,-304.4117 740.1719,-295.9309 720,-286.8 709.7123,-282.1433 698.8714,-276.5008 688.9782,-271.0402"/>
<polygon fill="#000000" stroke="#000000" points="690.6349,-267.9564 680.2022,-266.11 687.2064,-274.0593 690.6349,-267.9564"/>
</g>
<!-- node7&#45;&gt;node3 -->
<g id="edge16" class="edge">
<title>node7-&gt;node3</title>
<path fill="none" stroke="#000000" stroke-dasharray="1,5" d="M820,-304.7551C820,-296.6828 820,-286.9764 820,-277.9817"/>
<polygon fill="#000000" stroke="#000000" points="823.5001,-277.8903 820,-267.8904 816.5001,-277.8904 823.5001,-277.8903"/>
</g>
<!-- node7&#45;&gt;node4 -->
<g id="edge19" class="edge">
<title>node7-&gt;node4</title>
<path fill="none" stroke="#000000" stroke-dasharray="1,5" d="M863.3868,-315.1043C911.3521,-305.7088 984.3289,-288.4869 1003,-267.8 1020.3325,-248.5962 1023.984,-218.5638 1023.9747,-196.6098"/>
<polygon fill="#000000" stroke="#000000" points="1027.4724,-196.4721 1023.72,-186.5641 1020.4747,-196.6496 1027.4724,-196.4721"/>
</g>
<!-- node7&#45;&gt;node5 -->
<g id="edge18" class="edge">
<title>node7-&gt;node5</title>
<path fill="none" stroke="#000000" stroke-dasharray="1,5" d="M846.5093,-307.3186C864.7806,-296.6481 889.277,-282.3422 909.2683,-270.6673"/>
<polygon fill="#000000" stroke="#000000" points="911.2278,-273.5762 918.098,-265.5108 907.6976,-267.5315 911.2278,-273.5762"/>
</g>
</g>
</svg>